<svg width="144" height="181" viewBox="0 0 144 181" fill="none" xmlns="http://www.w3.org/2000/svg">
<path d="M1 172V56.5L34.5 60L60 106L87 64L119 66.5V179.5L89 178V111.5L60 155L32 107.5V174L1 172Z" fill="#39CECC" stroke="#090059"/>
<path d="M43.5 163L32 174V108L55 146.5V163H43.5Z" fill="#FFE7EB"/>
<path d="M43.5 163L32 174V108L55 146.5V163H43.5ZM43.5 163V134.5" stroke="#090059"/>
<path d="M119.5 179.5V67V66.5L130.5 66L142 57V170H131L119.5 179.5Z" fill="#FFE7EB"/>
<path d="M131 170L119.5 179.5V67V66.5L130.5 66L142 57V170H131ZM131 170V97.5M130.5 86.5V72" stroke="#090059"/>
<path d="M24 50C20.4 54.8 7.16667 56.3333 1 56.5L34.5 60L60 106L87 64L119 66.5L130.5 66L142 57L24 50Z" fill="#FFB6CF" stroke="#090059"/>
<path d="M21.4999 71.5C16 18.5 87.4998 -59 104.5 79.5" stroke="black"/>
<path d="M47.9999 51.5C39 13 115.5 -40 126 56" stroke="black"/>
</svg>
