<svg width="126" height="37" viewBox="0 0 126 37" fill="none" xmlns="http://www.w3.org/2000/svg">
<path d="M1 35.1045V12.0045L7.7 12.7045L12.8 21.9045L18.2 13.5045L24.6 14.0045V36.6045L18.6 36.3045V23.0045L12.8 31.7045L7.2 22.2045V35.5045L1 35.1045Z" fill="#39CECC" stroke="#090059" stroke-width="0.2"/>
<path d="M9.5002 33.3045L7.2002 35.5045V22.3045L11.8002 30.0045V33.3045H9.5002Z" fill="#FFE7EB"/>
<path d="M9.5002 33.3045L7.2002 35.5045V22.3045L11.8002 30.0045V33.3045H9.5002ZM9.5002 33.3045V27.6045" stroke="#090059" stroke-width="0.2"/>
<path d="M24.7002 36.6046V14.1046V14.0046L26.9002 13.9046L29.2002 12.1046V34.7046H27.0002L24.7002 36.6046Z" fill="#FFE7EB"/>
<path d="M27.0002 34.7046L24.7002 36.6046V14.1046V14.0046L26.9002 13.9046L29.2002 12.1046V34.7046H27.0002ZM27.0002 34.7046V20.2046M26.9002 18.0046V15.1046" stroke="#090059" stroke-width="0.2"/>
<path d="M5.6 10.7045C4.88 11.6645 2.23333 11.9712 1 12.0045L7.7 12.7045L12.8 21.9045L18.2 13.5045L24.6 14.0045L26.9 13.9045L29.2 12.1045L5.6 10.7045Z" fill="#FFB6CF" stroke="#090059" stroke-width="0.2"/>
<path d="M5.10023 15.0045C4.00024 4.40453 18.3002 -11.0955 21.7002 16.6045" stroke="black" stroke-width="0.2"/>
<path d="M10.4 11.0045C8.60005 3.30452 23.9 -7.29548 26 11.9045" stroke="black" stroke-width="0.2"/>
<path d="M40.7031 30.5625H39.3594V21.4531L36.4219 30.5625H35.2656L32.3438 21.4531V30.5625H30.9844V19.1562H32.8438L35.8594 28.4531L38.8281 19.1562H40.7031V30.5625ZM50.625 30.5625H49.125L48.0625 27.0625H44.4375L43.3906 30.5625H41.875L45.5156 19.1562H47L50.625 30.5625ZM47.6719 25.7656L46.2656 21.0781L44.8438 25.7656H47.6719ZM58.5938 22.4531C58.5938 22.974 58.474 23.4479 58.2344 23.875C58.0052 24.3021 57.7135 24.6302 57.3594 24.8594C57.0469 25.0677 56.8073 25.1979 56.6406 25.25C57.2135 25.5729 57.6615 26.1562 57.9844 27C58.3385 28.0208 58.6302 29.2083 58.8594 30.5625H57.3594C57.0781 28.6875 56.724 27.4375 56.2969 26.8125C55.8177 26.125 55.276 25.7812 54.6719 25.7812H53.7344V24.4375H54.6875C55.0208 24.4375 55.3281 24.4062 55.6094 24.3438C55.8906 24.2708 56.1406 24.1562 56.3594 24C56.5781 23.8542 56.7604 23.6458 56.9062 23.375C57.0625 23.1042 57.1406 22.7969 57.1406 22.4531C57.1406 22.0781 57.0625 21.7604 56.9062 21.5C56.7604 21.2396 56.5729 21.0312 56.3438 20.875C56.1146 20.7292 55.8542 20.6198 55.5625 20.5469C55.2812 20.474 55.0052 20.4375 54.7344 20.4375H53.2656V30.5625H51.8125V19.1562H54.7344C55.2135 19.1562 55.6771 19.2188 56.125 19.3438C56.5729 19.4583 56.974 19.6354 57.3281 19.875C57.7135 20.1458 58.0208 20.4844 58.25 20.8906C58.4792 21.2969 58.5938 21.8177 58.5938 22.4531ZM67.5625 30.5625H65.75L61.5938 25.4219V30.5625H60.1719V19.1562H61.5938V23.8281L65.4531 19.1562H67.1875L62.7188 24.5156L67.5625 30.5625ZM74.5156 30.5625H68.4844V19.1562H74.375V20.4531H69.9375V23.9531H74.1875V25.25H69.9375V29.2656H74.5156V30.5625ZM83.3438 20.4531H80.1406V30.5625H78.7031V20.4531H75.5V19.1562H83.3438V20.4531ZM91.4375 22.5469C91.4375 23.1302 91.3229 23.651 91.0938 24.1094C90.8646 24.5677 90.5677 24.9323 90.2031 25.2031C89.8385 25.4531 89.4271 25.6406 88.9688 25.7656C88.5208 25.8802 88.0521 25.9375 87.5625 25.9375H86.5781V24.5938H87.5312C87.8646 24.5938 88.1719 24.5677 88.4531 24.5156C88.7448 24.4531 88.9896 24.3385 89.1875 24.1719C89.4167 24.0052 89.6042 23.7812 89.75 23.5C89.9062 23.2188 89.9844 22.901 89.9844 22.5469C89.9844 22.1198 89.9062 21.776 89.75 21.5156C89.5938 21.2552 89.4062 21.0469 89.1875 20.8906C88.9583 20.724 88.6979 20.6094 88.4062 20.5469C88.125 20.474 87.849 20.4375 87.5781 20.4375H86.1094V30.5625H84.6562V19.1562H87.5781C88.0573 19.1562 88.5156 19.2188 88.9531 19.3438C89.401 19.4583 89.8073 19.6354 90.1719 19.875C90.5573 20.125 90.8646 20.4792 91.0938 20.9375C91.3229 21.3854 91.4375 21.9219 91.4375 22.5469ZM98.8906 30.5625H92.8438V19.1562H94.2969V29.2656H98.8906V30.5625ZM107.984 30.5625H106.484L105.422 27.0625H101.797L100.75 30.5625H99.2344L102.875 19.1562H104.359L107.984 30.5625ZM105.031 25.7656L103.625 21.0781L102.203 25.7656H105.031ZM116.891 22.4219H115.375C115.375 21.9844 115.312 21.6354 115.188 21.375C115.062 21.1146 114.906 20.8958 114.719 20.7188C114.521 20.5625 114.297 20.4427 114.047 20.3594C113.807 20.2656 113.568 20.2135 113.328 20.2031C112.911 20.2031 112.516 20.2969 112.141 20.4844C111.766 20.6615 111.422 20.9427 111.109 21.3281C110.818 21.724 110.583 22.2292 110.406 22.8438C110.24 23.4583 110.156 24.0677 110.156 24.6719C110.156 25.0677 110.198 25.5417 110.281 26.0938C110.375 26.6354 110.557 27.1771 110.828 27.7188C111.099 28.2083 111.458 28.625 111.906 28.9688C112.365 29.3125 112.953 29.4844 113.672 29.4844C114.182 29.4844 114.672 29.3958 115.141 29.2188C115.609 29.0417 116.073 28.7865 116.531 28.4531V30.0156C116.396 30.0885 116.245 30.1667 116.078 30.25C115.922 30.3333 115.719 30.4115 115.469 30.4844C114.854 30.6615 114.156 30.75 113.375 30.75C112.552 30.75 111.844 30.5729 111.25 30.2188C110.667 29.8646 110.172 29.3906 109.766 28.7969C109.359 28.2135 109.078 27.5677 108.922 26.8594C108.766 26.151 108.688 25.4219 108.688 24.6719C108.688 23.9219 108.776 23.2083 108.953 22.5312C109.13 21.8438 109.411 21.2396 109.797 20.7188C110.182 20.2083 110.667 19.7865 111.25 19.4531C111.844 19.1198 112.536 18.9531 113.328 18.9531C113.807 18.9531 114.26 19.0365 114.688 19.2031C115.125 19.3594 115.5 19.5833 115.812 19.875C116.135 20.1771 116.396 20.5312 116.594 20.9375C116.792 21.3333 116.891 21.8281 116.891 22.4219ZM124.375 30.5625H118.344V19.1562H124.234V20.4531H119.797V23.9531H124.047V25.25H119.797V29.2656H124.375V30.5625Z" fill="url(#paint0_linear_214_21)" fill-opacity="0.9"/>
<defs>
<linearGradient id="paint0_linear_214_21" x1="30" y1="25" x2="126" y2="25" gradientUnits="userSpaceOnUse">
<stop stop-color="#007179"/>
<stop offset="0.51" stop-color="#520372"/>
<stop offset="1" stop-color="#430044"/>
</linearGradient>
</defs>
</svg>
